<svg xmlns="http://www.w3.org/2000/svg" version="1.1" xmlns:xlink="http://www.w3.org/1999/xlink" xmlns:svgjs="http://svgjs.com/svgjs" width="1440" height="250" preserveAspectRatio="none" viewBox="0 0 1440 250"><g mask="url(&quot;#SvgjsMask1122&quot;)" fill="none"><rect width="1440" height="250" x="0" y="0" fill="url(#SvgjsLinearGradient1123)"></rect><path d="M15 250L265 0L368.5 0L118.5 250z" fill="url(#SvgjsLinearGradient1124)"></path><path d="M265.6 250L515.6 0L619.1 0L369.1 250z" fill="url(#SvgjsLinearGradient1124)"></path><path d="M506.20000000000005 250L756.2 0L1005.2 0L755.2 250z" fill="url(#SvgjsLinearGradient1124)"></path><path d="M737.8000000000001 250L987.8000000000001 0L1308.8000000000002 0L1058.8000000000002 250z" fill="url(#SvgjsLinearGradient1124)"></path><path d="M1430 250L1180 0L1016.5 0L1266.5 250z" fill="url(#SvgjsLinearGradient1125)"></path><path d="M1156.4 250L906.4000000000001 0L754.9000000000001 0L1004.9000000000001 250z" fill="url(#SvgjsLinearGradient1125)"></path><path d="M959.8 250L709.8 0L354.29999999999995 0L604.3 250z" fill="url(#SvgjsLinearGradient1125)"></path><path d="M695.1999999999999 250L445.19999999999993 0L355.19999999999993 0L605.1999999999999 250z" fill="url(#SvgjsLinearGradient1125)"></path><path d="M1286.1338324234157 250L1440 96.13383242341561L1440 250z" fill="url(#SvgjsLinearGradient1124)"></path><path d="M0 250L153.8661675765844 250L 0 96.13383242341561z" fill="url(#SvgjsLinearGradient1125)"></path></g><defs><mask id="SvgjsMask1122"><rect width="1440" height="250" fill="#ffffff"></rect></mask><linearGradient x1="20.66%" y1="-119%" x2="79.34%" y2="219%" gradientUnits="userSpaceOnUse" id="SvgjsLinearGradient1123"><stop stop-color="#0e2a47" offset="0"></stop><stop stop-color="rgba(63, 131, 248, 1)" offset="1"></stop></linearGradient><linearGradient x1="0%" y1="100%" x2="100%" y2="0%" id="SvgjsLinearGradient1124"><stop stop-color="rgba(15, 70, 185, 0.2)" offset="0"></stop><stop stop-opacity="0" stop-color="rgba(15, 70, 185, 0.2)" offset="0.66"></stop></linearGradient><linearGradient x1="100%" y1="100%" x2="0%" y2="0%" id="SvgjsLinearGradient1125"><stop stop-color="rgba(15, 70, 185, 0.2)" offset="0"></stop><stop stop-opacity="0" stop-color="rgba(15, 70, 185, 0.2)" offset="0.66"></stop></linearGradient></defs></svg>